<?xml version="1.0" standalone="no"?><!DOCTYPE svg PUBLIC "-//W3C//DTD SVG 1.1//EN" "http://www.w3.org/Graphics/SVG/1.1/DTD/svg11.dtd"><svg t="1493016172313" class="icon" style="" viewBox="0 0 1024 1024" version="1.1" xmlns="http://www.w3.org/2000/svg" p-id="36940" xmlns:xlink="http://www.w3.org/1999/xlink" width="200" height="200"><defs><style type="text/css"></style></defs><path d="M25.40767 478.336296a494.139214 464.868563 0 1 0 988.278427 0 494.139214 464.868563 0 1 0-988.278427 0Z" fill="#00AFF4" p-id="36941"></path><path d="M519.546883 945.763125c-67.033719 0-132.064828-12.351306-193.287191-36.713157-59.141982-23.532973-112.258737-57.224306-157.874657-100.137675-45.627177-42.924625-81.452103-92.914156-106.47808-148.57792-25.916253-57.642838-39.056528-118.876458-39.056528-181.997054s13.140275-124.353193 39.056528-181.997054c25.027-55.664787 60.850903-105.653295 106.47808-148.57792 45.616944-42.914392 98.732675-76.605725 157.874657-100.138698C387.482055 23.261797 452.513164 10.909467 519.546883 10.909467S651.611711 23.261797 712.834074 47.622624c59.143005 23.532973 112.25976 57.224306 157.875681 100.138698 45.627177 42.924625 81.452103 92.913133 106.479103 148.57792 25.915229 57.643861 39.056528 118.875434 39.056528 181.997054s-13.141298 124.354216-39.056528 181.997054c-25.027 55.663764-60.851926 105.653295-106.479103 148.57792-45.61592 42.914392-98.732675 76.604702-157.875681 100.137675-61.222363 24.362874-126.253472 36.71418-193.287191 36.71418z m0-929.737127c-66.382896 0-130.777509 12.230556-191.395098 36.349883-58.541301 23.294542-111.11468 56.639998-156.260903 99.111299-45.134966 42.461067-80.56899 91.902106-105.317651 146.94984-25.617447 56.979736-38.607296 117.506251-38.607296 179.898253 0 62.393026 12.988826 122.920564 38.607296 179.898253 24.749684 55.047734 60.182684 104.488773 105.317651 146.950863 45.1452 42.4713 97.719602 75.816756 156.260903 99.111299 60.617589 24.12035 125.012202 36.349883 191.395098 36.349882s130.778532-12.229532 191.395098-36.349882c58.542324-23.294542 111.115704-56.639998 156.260903-99.111299 45.134966-42.461067 80.56899-91.90313 105.318674-146.950863 25.617447-56.978712 38.607296-117.505227 38.607297-179.898253 0-62.393026-12.988826-122.919541-38.607297-179.898253-24.749684-55.047734-60.182684-104.488773-105.318674-146.94984C822.057685 109.015879 769.484306 75.6694 710.941981 52.375881 650.325415 28.256554 585.92978 16.025998 519.546883 16.025998z" fill="" p-id="36942"></path><path d="M71.76651 532.545942a445.115684 384.859321 0 1 0 890.231367 0 445.115684 384.859321 0 1 0-890.231367 0Z" fill="#FFFFFF" p-id="36943"></path><path d="M516.881171 919.964552c-60.391439 0-118.979812-10.227945-174.13704-30.399357-53.296857-19.490913-101.166097-47.39852-142.27947-82.947154-41.141002-35.57217-73.445756-77.002768-96.016821-123.143645-23.38357-47.800679-35.239596-98.580203-35.239595-150.928454s11.856026-103.128799 35.239595-150.929478c22.571065-46.139853 54.875818-87.571475 96.016821-123.142621 41.113373-35.548634 88.983637-63.455217 142.27947-82.946131 55.158251-20.171412 113.746624-30.400381 174.13704-30.40038s118.979812 10.227945 174.138062 30.40038c53.296857 19.490913 101.166097 47.397496 142.280494 82.946131 41.139979 35.571147 73.444732 77.002768 96.01682 123.142621 23.38357 47.800679 35.239596 98.580203 35.239596 150.929478s-11.856026 103.127775-35.239596 150.928454c-22.572088 46.140876-54.876842 87.571475-96.01682 123.143645-41.114396 35.547611-88.983637 63.456241-142.280494 82.947154-55.158251 20.171412-113.746624 30.399357-174.138062 30.399357z m0-769.719666c-59.789735 0-117.786637 10.123568-172.380023 30.088272-52.712549 19.277042-100.047624 46.86947-140.690276 82.011852-40.616046 35.117822-72.500221 76.002998-94.767363 121.520681-23.037692 47.094598-34.718733 97.117898-34.718733 148.680251s11.68104 101.585653 34.718733 148.680251c22.267143 45.517683 54.150294 86.403882 94.767363 121.521704 40.643676 35.141358 87.97875 62.73481 140.690276 82.011852 54.593386 19.965727 112.590288 30.088272 172.380023 30.088272s117.786637-10.123568 172.381045-30.088272c52.712549-19.277042 100.047624-46.870494 140.690276-82.011852 40.616046-35.117822 72.501244-76.002998 94.766341-121.521704 23.038716-47.093575 34.719756-97.116875 34.719756-148.680251s-11.68104-101.585653-34.719756-148.680251c-22.26612-45.517683-54.150294-86.403882-94.766341-121.520681-40.643676-35.141358-87.97875-62.73481-140.690276-82.011852-54.593386-19.965727-112.591311-30.088272-172.381045-30.088272z" fill="" p-id="36944"></path><path d="M323.420017 168.157861a121.589242 98.063433 90 1 0 196.126866 0 121.589242 98.063433 90 1 0-196.126866 0Z" fill="#FFFFFF" p-id="36945"></path><path d="M421.484474 292.305369c-55.482639 0-100.621698-55.692417-100.621699-124.147508s45.13906-124.147508 100.621699-124.147508 100.620675 55.692417 100.620675 124.147508-45.13906 124.147508-100.620675 124.147508z m0-243.178485c-52.661384 0-95.505167 53.397141-95.505168 119.030977s42.843784 119.030977 95.505168 119.030977c52.661384 0 95.504144-53.397141 95.504144-119.030977s-42.842761-119.030977-95.504144-119.030977z" fill="" p-id="36946"></path><path d="M438.60234 211.16742a43.00956 26.093285 90 1 0 52.186569 0 43.00956 26.093285 90 1 0-52.186569 0Z" fill="" p-id="36947"></path><path d="M451.649494 211.16742a21.50478 13.046131 90 1 0 26.092261 0 21.50478 13.046131 90 1 0-26.092261 0Z" fill="#FFFAF6" p-id="36948"></path><path d="M522.451026 168.157861a121.589242 98.063433 90 1 0 196.126866 0 121.589242 98.063433 90 1 0-196.126866 0Z" fill="#FFFFFF" p-id="36949"></path><path d="M620.515483 292.305369c-55.483662 0-100.621698-55.692417-100.621699-124.147508s45.138036-124.147508 100.621699-124.147508c55.482639 0 100.620675 55.692417 100.620675 124.147508s-45.13906 124.147508-100.620675 124.147508z m0-243.178485c-52.661384 0-95.505167 53.397141-95.505168 119.030977s42.843784 119.030977 95.505168 119.030977 95.504144-53.397141 95.504144-119.030977-42.842761-119.030977-95.504144-119.030977z" fill="" p-id="36950"></path><path d="M544.259728 211.16742a43.00956 26.093285 90 1 0 52.186569 0 43.00956 26.093285 90 1 0-52.186569 0Z" fill="" p-id="36951"></path><path d="M557.306882 211.16742a21.50478 13.046131 90 1 0 26.092261 0 21.50478 13.046131 90 1 0-26.092261 0Z" fill="#FFFAF6" p-id="36952"></path><path d="M521.234315 324.529281m-69.328995 0a69.328995 69.328995 0 1 0 138.65799 0 69.328995 69.328995 0 1 0-138.65799 0Z" fill="#F9252D" p-id="36953"></path><path d="M521.234315 396.416542c-39.638789 0-71.88726-32.248472-71.88726-71.887261s32.248472-71.88726 71.88726-71.88726c39.637766 0 71.886237 32.248472 71.886237 71.88726s-32.247448 71.88726-71.886237 71.887261z m0-138.65799c-36.817534 0-66.770729 29.953196-66.770729 66.770729s29.953196 66.770729 66.770729 66.77073 66.769706-29.953196 66.769706-66.77073-29.952172-66.770729-66.769706-66.770729zM511.923252 542.490431c-98.082876-2.963495-126.462227-7.03216-128.84653-7.396457-3.327792-0.192382-67.10842-4.063549-130.617873-19.777439-38.247092-9.463536-68.956511-21.318538-91.272773-35.234479-28.367071-17.688871-43.303248-38.82526-44.394093-62.823837-1.315972-28.945239 6.266727-49.970088 22.535249-62.488193 30.91101-23.784706 81.485873-8.275477 83.624583-7.603165l-1.532913 4.88117c-0.499373-0.156566-50.200332-15.378246-78.983889 6.786567-14.859429 11.441587-21.766746 31.019481-20.531616 58.19133 1.00898 22.208814 15.128559 41.958624 41.966811 58.699914 21.849634 13.629415 52.0474 25.273616 89.756233 34.608216 64.444754 15.953344 129.213897 19.62292 129.859603 19.657712l0.26299 0.027629c0.271176 0.042979 28.254507 4.331655 128.327714 7.355525l-0.153496 5.115507z" fill="" p-id="36954"></path><path d="M512.076748 542.862915l-0.153496-5.114484c101.417831-3.064802 101.417831-3.064802 128.300085-7.351432l0.290619-0.031723c0.64673-0.034792 65.415872-3.704368 129.859603-19.658735 37.708833-9.334599 67.906599-20.9788 89.756233-34.608216 26.838252-16.741289 40.956807-36.491099 41.967834-58.699913 1.234107-27.170826-5.67321-46.749744-20.532639-58.19133-28.78151-22.163789-78.483492-6.942109-78.982866-6.786567l-1.533936-4.881171c2.13871-0.673335 52.713572-16.183588 83.624583 7.603165 16.268522 12.518105 23.852244 33.542954 22.535249 62.488193-1.089821 23.998577-16.027022 45.134966-44.394093 62.823838-22.317285 13.915941-53.025681 25.770943-91.273796 35.234479-63.4808 15.70775-127.232776 19.581987-130.612757 19.777439-27.103288 4.321422-27.265994 4.326539-128.850623 7.396457z" fill="" p-id="36955"></path><path d="M857.973686 483.23077c0 176.835498-151.603837 325.305971-338.615091 325.30597S180.742481 665.183821 180.742481 488.347301c11.632945 3.681856 48.383964 19.839861 99.296517 30.928406 62.673411 13.649881 146.806577 22.251793 231.961002 22.39608 79.148641 0.13303 159.180396-7.258311 223.682455-20.39654 56.127322-11.432377 100.494809-33.573653 122.291231-38.044477z" fill="#F9252D" p-id="36956"></path><path d="M519.357572 811.095006c-91.103928 0-176.761819-33.55421-241.194295-94.480838-64.472384-60.963467-99.979062-142.030807-99.979062-228.266867v-3.492545l3.329838 1.054006c2.698458 0.853437 6.700609 2.357697 11.768022 4.261047 16.809851 6.314823 48.099485 18.069541 87.301321 26.605961 64.542992 14.056134 148.892075 22.197558 231.420697 22.337751 78.868255 0.127913 158.103878-7.093559 223.166709-20.345374 34.443463-7.014764 63.894216-17.886369 87.557148-26.622334 14.635325-5.403057 26.194592-9.670244 34.72999-11.42112l3.071965-0.630357v3.136434c0 43.61945-9.025561 86.169545-26.828019 126.465296-17.220197 38.97978-41.825594 74.084299-73.130577 104.340393-31.404244 30.350239-67.88818 54.206576-108.436688 70.903863-42.142819 17.355273-86.816275 26.154683-132.777049 26.154684zM183.322236 491.931942c0.970094 83.476203 35.811624 161.822572 98.356098 220.964554 63.478753 60.024072 147.889235 93.081978 237.679238 93.081979 45.289486 0 89.305979-8.670473 130.83072-25.768897 39.948851-16.45067 75.891458-39.952944 106.829074-69.852928 30.827099-29.79356 55.053873-64.35675 72.004941-102.728686 17.074887-38.650275 25.942859-79.401398 26.374694-121.178896-7.857968 1.990331-18.203594 5.809309-30.896684 10.495028-22.570042 8.331759-53.481052 19.742646-88.308255 26.836205-64.800865 13.199627-143.584186 20.450774-222.059492 20.450774l-2.136663-0.002046c-82.875522-0.140193-167.619602-8.324596-232.502332-22.454408-39.565111-8.616238-71.079872-20.455891-88.011496-26.816762-3.170203-1.190105-5.918803-2.222621-8.159843-3.025917z" fill="" p-id="36957"></path><path d="M512.017396 303.300794m-21.228487 0a21.228487 21.228487 0 1 0 42.456974 0 21.228487 21.228487 0 1 0-42.456974 0Z" fill="#FFFFFF" p-id="36958"></path><path d="M765.404384 954.35071H258.594593c-22.707165 0-41.286312-18.578124-41.286312-41.286312V897.309576c0-22.707165 18.578124-41.286312 41.286312-41.286312h506.809791c22.707165 0 41.286312 18.578124 41.286312 41.286312v15.754822c0 22.708188-18.579147 41.286312-41.286312 41.286312z" fill="#F9252D" p-id="36959"></path><path d="M765.405407 956.908976H258.595616c-24.175609 0-43.844577-19.668968-43.844577-43.844578V897.309576c0-24.175609 19.668968-43.843554 43.844577-43.843554h506.809791c24.175609 0 43.843554 19.667945 43.843554 43.843554v15.754822c-0.001023 24.176632-19.667945 43.844577-43.843554 43.844578z m-506.809791-98.3254c-21.354354 0-38.728046 17.373693-38.728046 38.727023v15.754823c0 21.354354 17.373693 38.728046 38.728046 38.728046h506.809791c21.35333 0 38.727023-17.373693 38.727023-38.728046V897.309576c0-21.35333-17.373693-38.727023-38.727023-38.727023H258.595616z" fill="" p-id="36960"></path><path d="M518.67605 393.858276h5.116531v145.803737h-5.116531z" fill="" p-id="36961"></path><path d="M154.070005 268.39889l2.159176-4.638647 222.567051 103.623055-2.159176 4.638647zM110.321618 387.585409l0.586354-5.082762 262.461667 30.278607-0.586354 5.082762zM113.327068 491.587088l259.389702-36.9434 0.721431 5.065365-259.389702 36.943401z" fill="" p-id="36962"></path><path d="M651.91154 361.178993L874.454032 257.528308l2.159176 4.638647-222.541469 103.648638zM657.291061 406.513504l262.46269-30.252001 0.586354 5.082762L657.877415 411.597289zM657.19794 453.505771l0.720407-5.065366 259.390725 36.917818-0.72143 5.065366z" fill="" p-id="36963"></path><path d="M512.216941 657.653311s-251.721045-139.674133-224.092801 64.465221c0 0 84.418668 89.535199 247.116167 86.46528 0 0 29.390377-0.407276 68.351738-10.565636 50.125631-13.068643 114.750487-39.594787 138.857534-73.853032 0.110517-2.788509 7.563256-195.381899-230.232638-66.511833z" fill="#FF7307" p-id="36964"></path><path d="M527.208377 811.217802c-80.536244 0.001023-140.879588-22.889313-177.737031-42.455951-41.3385-21.944801-62.334697-43.962258-63.2086-44.888349l-0.563842-0.597611-0.110517-0.814552c-6.749728-49.876967 2.578732-83.878362 27.726482-101.059673 25.957185-17.73492 67.61598-17.349133 123.81698 1.143033 37.0795 12.20088 68.557422 28.688389 75.087139 32.198329 84.34499-45.478797 147.552567-55.815213 187.867761-30.709419 47.179532 29.379121 45.033659 97.354282 44.919049 100.232842l-0.029676 0.753154-0.433882 0.617053c-24.319895 34.56012-88.421842 61.32981-140.303466 74.855872-38.812981 10.119475-68.665893 10.644431-68.962651 10.648524-2.711761 0.052189-5.40101 0.076748-8.067746 0.076748z m-236.661048-90.280166c3.611248 3.628644 24.514323 23.799032 61.533448 43.416836 37.511335 19.87977 99.730399 43.256176 183.111435 41.672098 0.302899-0.004093 29.580712-0.531096 67.75515-10.482749 27.791973-7.246031 55.741535-17.473977 78.698386-28.799929 27.39186-13.511735 47.517223-28.515451 58.269102-43.430139 0.179079-7.835456 0.12382-68.372204-42.531676-94.935186-38.832424-24.182772-100.723006-13.57825-183.947475 31.526018l-1.233084 0.668219-1.226945-0.680499c-1.351787-0.750083-135.859247-74.522274-194.776101-34.262338-23.279193 15.904225-31.907711 47.968501-25.65224 95.307669z" fill="" p-id="36965"></path><path d="M518.971785 944.506505m-69.328995 0a69.328995 69.328995 0 1 0 138.65799 0 69.328995 69.328995 0 1 0-138.65799 0Z" fill="#FFE315" p-id="36966"></path><path d="M518.971785 1016.392742c-39.638789 0-71.88726-32.248472-71.88726-71.886237 0-39.638789 32.248472-71.88726 71.88726-71.887261 39.637766 0 71.886237 32.248472 71.886237 71.887261 0 39.638789-32.247448 71.886237-71.886237 71.886237z m0-138.656967c-36.817534 0-66.770729 29.953196-66.770729 66.77073s29.953196 66.769706 66.770729 66.769706 66.769706-29.953196 66.769706-66.769706-29.952172-66.770729-66.769706-66.77073z" fill="" p-id="36967"></path><path d="M518.971785 961.589578m-23.363104 0a23.363104 23.363104 0 1 0 46.726208 0 23.363104 23.363104 0 1 0-46.726208 0Z" fill="#826D5F" p-id="36968"></path><path d="M518.971785 987.510948c-14.293541 0-25.922393-11.627828-25.922392-25.92137s11.628852-25.921369 25.922392-25.921369 25.921369 11.627828 25.921369 25.921369-11.627828 25.921369-25.921369 25.92137z m0-46.726208c-11.472286 0-20.804838 9.332553-20.804838 20.804838s9.332553 20.804838 20.804838 20.804839 20.804838-9.332553 20.804838-20.804839-9.332553-20.804838-20.804838-20.804838z" fill="" p-id="36969"></path><path d="M516.41352 984.952682h5.116531v28.882818h-5.116531z" fill="" p-id="36970"></path><path d="M584.590272 928.899038l-67.708078-4.093224-66.423829 4.093224c-6.520507 0-11.856026-5.335519-11.856025-11.856025s5.335519-11.856026 11.856025-11.856026l66.423829-4.093225 67.708078 4.093225c6.520507 0 11.856026 5.335519 11.856025 11.856026s-5.335519 11.856026-11.856025 11.856025z" fill="#FFE315" p-id="36971"></path><path d="M584.590272 931.457304l-0.153496-0.005117-67.552536-4.082991-66.425875 4.088108c-7.948019 0-14.413268-6.466272-14.413268-14.414291 0-7.92039 6.421246-14.369266 14.331404-14.414291l66.50467-4.098342 0.155542 0.010233 67.635423 4.088109c7.910157 0.044002 14.33345 6.493901 14.33345 14.414291-0.001023 7.948019-6.467295 14.414291-14.415314 14.414291z m-67.710125-9.213849l0.155543 0.010233 67.627237 4.088108c5.092995-0.039909 9.225105-4.195555 9.225105-9.29776 0-5.126764-4.170996-9.29776-9.29776-9.29776l-0.153496-0.005117-67.552536-4.082991-66.425875 4.088108c-5.126764 0-9.296737 4.170996-9.296737 9.29776 0 5.102205 4.131087 9.257851 9.223059 9.29776l66.49546-4.098341z" fill="" p-id="36972"></path></svg>